<svg width="25" height="34" viewBox="0 0 25 34" fill="none" xmlns="http://www.w3.org/2000/svg">
<path d="M12.3899 33.368C10.1206 33.368 7.91256 33.0153 5.76589 32.31C3.64989 31.6047 1.91722 30.654 0.567891 29.458L2.68389 25.824C3.75722 26.836 5.15256 27.664 6.86989 28.308C8.58722 28.952 10.4272 29.274 12.3899 29.274C14.7819 29.274 16.6372 28.768 17.9559 27.756C19.3052 26.7133 19.9799 25.318 19.9799 23.57C19.9799 21.8833 19.3359 20.534 18.0479 19.522C16.7906 18.4793 14.7819 17.958 12.0219 17.958H9.44589V14.738L19.0139 2.962L19.6579 4.802H2.03989V0.799998H23.2919V3.928L13.7699 15.658L11.3779 14.232H12.8959C16.7906 14.232 19.7039 15.106 21.6359 16.854C23.5986 18.602 24.5799 20.8253 24.5799 23.524C24.5799 25.3333 24.1352 26.9893 23.2459 28.492C22.3566 29.9947 21.0072 31.1907 19.1979 32.08C17.4192 32.9387 15.1499 33.368 12.3899 33.368Z" fill="#17AEFF"/>
</svg>
