<svg width="26" height="33" viewBox="0 0 26 33" fill="none" xmlns="http://www.w3.org/2000/svg">
<path d="M1.99497 33V29.872L15.105 17.222C16.2703 16.118 17.129 15.152 17.681 14.324C18.2636 13.4653 18.647 12.6833 18.831 11.978C19.0456 11.242 19.153 10.5367 19.153 9.862C19.153 8.206 18.5703 6.90267 17.405 5.952C16.2396 5.00133 14.5376 4.526 12.299 4.526C10.5816 4.526 9.03297 4.81733 7.65297 5.4C6.27297 5.952 5.07697 6.826 4.06497 8.022L0.936969 5.308C2.16364 3.744 3.8043 2.548 5.85897 1.72C7.9443 0.861333 10.229 0.432 12.713 0.432C14.9516 0.432 16.899 0.8 18.555 1.536C20.211 2.24133 21.4836 3.26867 22.373 4.618C23.293 5.96733 23.753 7.562 23.753 9.402C23.753 10.4447 23.615 11.472 23.339 12.484C23.063 13.496 22.5416 14.5693 21.775 15.704C21.0083 16.8387 19.9043 18.1113 18.463 19.522L6.77897 30.792L5.67497 28.998H25.133V33H1.99497Z" fill="#17AEFF"/>
</svg>
